<?xml version="1.0" standalone="no"?>
<!DOCTYPE svg PUBLIC "-//W3C//DTD SVG 20010904//EN"
 "http://www.w3.org/TR/2001/REC-SVG-20010904/DTD/svg10.dtd">
<svg version="1.0" xmlns="http://www.w3.org/2000/svg"
 width="513.000000pt" height="513.000000pt" viewBox="0 0 513.000000 513.000000"
 preserveAspectRatio="xMidYMid meet">
<metadata>
Created by potrace 1.14, written by Peter Selinger 2001-2017
</metadata>
<g transform="translate(0.000000,513.000000) scale(0.100000,-0.100000)"
fill="#000000" stroke="none">
<path d="M10 2570 l0 -2560 2560 0 2560 0 -2 2558 -3 2557 -2557 3 -2558 2 0
-2560z m2665 1475 c74 -21 131 -74 150 -137 8 -29 15 -64 15 -79 0 -39 -35
-147 -92 -281 -72 -173 -145 -400 -162 -505 -18 -112 -41 -382 -33 -390 9 -8
168 80 292 162 129 85 252 202 419 398 171 201 229 241 346 241 70 0 120 -26
190 -96 121 -121 138 -276 42 -365 -61 -57 -210 -109 -394 -138 -200 -32 -361
-67 -467 -101 -110 -36 -385 -171 -384 -189 1 -13 197 -116 298 -156 109 -43
311 -93 480 -118 410 -62 559 -159 525 -342 -13 -69 -46 -123 -114 -187 -67
-63 -108 -82 -179 -82 -114 0 -176 42 -335 229 -231 271 -365 383 -614 516
l-108 57 0 -29 c0 -15 5 -82 10 -148 22 -259 57 -392 185 -709 40 -100 78
-205 85 -234 23 -100 -10 -194 -87 -242 -63 -40 -131 -53 -249 -48 -81 3 -108
9 -149 30 -60 31 -77 49 -104 108 -33 73 -28 145 20 280 89 251 140 418 164
534 24 120 54 431 42 442 -8 8 -98 -47 -233 -143 -134 -95 -296 -251 -419
-404 -107 -132 -149 -168 -219 -186 -106 -27 -194 -6 -265 65 -73 73 -95 129
-96 237 0 78 4 97 27 146 39 78 86 124 142 138 26 6 124 18 219 26 341 30 519
75 735 184 l77 39 -90 42 c-245 114 -398 151 -750 180 -71 6 -151 16 -178 22
-63 13 -117 61 -154 136 -24 49 -28 69 -28 147 0 71 5 100 21 136 31 66 87
124 150 155 48 23 63 26 127 22 111 -7 164 -43 270 -182 90 -118 265 -295 376
-379 127 -97 281 -200 289 -193 8 9 -16 307 -33 407 -21 117 -64 267 -131 456
-78 218 -84 240 -84 303 0 62 32 141 71 177 73 67 248 89 384 48z"/>
</g>
</svg>
